<?xml version="1.0" ?>
<!-- Uploaded to: SVG Repo, www.svgrepo.com, Generator: SVG Repo Mixer Tools -->
<svg fill="#000000" width="800px" height="800px" viewBox="0 0 24 24" xmlns="http://www.w3.org/2000/svg">
<defs>
<style>.cls-1{fill:none;}</style>
</defs>
<g id="Artwork">
<path d="M18.14,9.63a6.1,6.1,0,0,0-12,0A5,5,0,0,0,7,19.5H17a5,5,0,0,0,1.14-9.87Zm2,6.37A3.5,3.5,0,0,1,17,18H7a3.5,3.5,0,0,1-3.16-2,3.41,3.41,0,0,1-.34-1.5A3.5,3.5,0,0,1,6,11.14,3.45,3.45,0,0,1,7,11a3,3,0,0,1,.52,0c0-.14,0-.28,0-.43a4.16,4.16,0,0,1,.13-1.06,4.61,4.61,0,0,1,9,0,4.85,4.85,0,0,1,.13,1.09c0,.14,0,.28,0,.41a1.51,1.51,0,0,1,.3,0,3.15,3.15,0,0,1,1.19.22A3.48,3.48,0,0,1,20.5,14.5,3.41,3.41,0,0,1,20.16,16Z"/>
<rect class="cls-1" height="24" width="24"/>
</g>
</svg>